<mxfile host="app.diagrams.net" modified="2024-04-26T07:38:32.546Z" agent="Mozilla/5.0 (Macintosh; Intel Mac OS X 10_15_7) AppleWebKit/537.36 (KHTML, like Gecko) Chrome/124.0.0.0 Safari/537.36" etag="ZcD7Pq7a3-ipDe8QLknF" version="24.2.7" type="device">
  <diagram id="dVvoIW_L2ZeXK6EoiIaQ" name="Page-1">
    <mxGraphModel dx="1363" dy="866" grid="1" gridSize="10" guides="1" tooltips="1" connect="1" arrows="1" fold="1" page="1" pageScale="1" pageWidth="827" pageHeight="1169" math="0" shadow="0">
      <root>
        <mxCell id="0" />
        <mxCell id="1" parent="0" />
        <mxCell id="V2kGCIOV-SWiBUG3oY8C-50" style="edgeStyle=orthogonalEdgeStyle;rounded=0;orthogonalLoop=1;jettySize=auto;html=1;" parent="1" source="gXMzRmbCBZJjR22APG0Y-1" edge="1">
          <mxGeometry relative="1" as="geometry">
            <mxPoint x="900" y="610" as="targetPoint" />
          </mxGeometry>
        </mxCell>
        <mxCell id="V2kGCIOV-SWiBUG3oY8C-56" style="edgeStyle=orthogonalEdgeStyle;rounded=0;orthogonalLoop=1;jettySize=auto;html=1;exitX=0;exitY=0.5;exitDx=0;exitDy=0;entryX=1;entryY=0.5;entryDx=0;entryDy=0;" parent="1" source="gXMzRmbCBZJjR22APG0Y-1" target="V2kGCIOV-SWiBUG3oY8C-45" edge="1">
          <mxGeometry relative="1" as="geometry" />
        </mxCell>
        <mxCell id="V2kGCIOV-SWiBUG3oY8C-94" style="edgeStyle=orthogonalEdgeStyle;rounded=0;orthogonalLoop=1;jettySize=auto;html=1;exitX=0.25;exitY=1;exitDx=0;exitDy=0;entryX=1;entryY=0.5;entryDx=0;entryDy=0;" parent="1" source="gXMzRmbCBZJjR22APG0Y-1" target="V2kGCIOV-SWiBUG3oY8C-93" edge="1">
          <mxGeometry relative="1" as="geometry" />
        </mxCell>
        <mxCell id="gXMzRmbCBZJjR22APG0Y-1" value="&lt;b&gt;app-webscoket&lt;/b&gt;" style="rounded=1;whiteSpace=wrap;html=1;" parent="1" vertex="1">
          <mxGeometry x="840" y="390" width="120" height="60" as="geometry" />
        </mxCell>
        <mxCell id="FPiF2-erJeEUC9mxgl_W-9" style="edgeStyle=orthogonalEdgeStyle;rounded=0;orthogonalLoop=1;jettySize=auto;html=1;" edge="1" parent="1" source="V2kGCIOV-SWiBUG3oY8C-1">
          <mxGeometry relative="1" as="geometry">
            <mxPoint x="900" y="190" as="targetPoint" />
          </mxGeometry>
        </mxCell>
        <mxCell id="V2kGCIOV-SWiBUG3oY8C-1" value="user" style="ellipse;whiteSpace=wrap;html=1;aspect=fixed;" parent="1" vertex="1">
          <mxGeometry x="860" y="50" width="80" height="80" as="geometry" />
        </mxCell>
        <mxCell id="V2kGCIOV-SWiBUG3oY8C-3" value="" style="rounded=1;whiteSpace=wrap;html=1;" parent="1" vertex="1">
          <mxGeometry x="566.5" y="650" width="120" height="60" as="geometry" />
        </mxCell>
        <mxCell id="V2kGCIOV-SWiBUG3oY8C-7" value="" style="rounded=1;whiteSpace=wrap;html=1;" parent="1" vertex="1">
          <mxGeometry x="576.5" y="660" width="120" height="60" as="geometry" />
        </mxCell>
        <mxCell id="V2kGCIOV-SWiBUG3oY8C-53" style="edgeStyle=orthogonalEdgeStyle;rounded=0;orthogonalLoop=1;jettySize=auto;html=1;" parent="1" source="V2kGCIOV-SWiBUG3oY8C-8" target="V2kGCIOV-SWiBUG3oY8C-45" edge="1">
          <mxGeometry relative="1" as="geometry">
            <mxPoint x="525" y="550" as="targetPoint" />
          </mxGeometry>
        </mxCell>
        <mxCell id="V2kGCIOV-SWiBUG3oY8C-80" style="edgeStyle=orthogonalEdgeStyle;rounded=0;orthogonalLoop=1;jettySize=auto;html=1;entryX=0.5;entryY=1;entryDx=0;entryDy=0;" parent="1" source="V2kGCIOV-SWiBUG3oY8C-8" edge="1">
          <mxGeometry relative="1" as="geometry">
            <mxPoint x="646.5" y="565" as="targetPoint" />
          </mxGeometry>
        </mxCell>
        <mxCell id="V2kGCIOV-SWiBUG3oY8C-8" value="&lt;b&gt;app-consumer&lt;/b&gt;" style="rounded=1;whiteSpace=wrap;html=1;" parent="1" vertex="1">
          <mxGeometry x="586.5" y="670" width="120" height="60" as="geometry" />
        </mxCell>
        <mxCell id="V2kGCIOV-SWiBUG3oY8C-49" style="edgeStyle=orthogonalEdgeStyle;rounded=0;orthogonalLoop=1;jettySize=auto;html=1;" parent="1" source="V2kGCIOV-SWiBUG3oY8C-24" edge="1">
          <mxGeometry relative="1" as="geometry">
            <mxPoint x="710" y="700" as="targetPoint" />
          </mxGeometry>
        </mxCell>
        <mxCell id="V2kGCIOV-SWiBUG3oY8C-70" style="edgeStyle=orthogonalEdgeStyle;rounded=0;orthogonalLoop=1;jettySize=auto;html=1;entryX=1;entryY=0.25;entryDx=0;entryDy=0;" parent="1" edge="1">
          <mxGeometry relative="1" as="geometry">
            <mxPoint x="960" y="415" as="targetPoint" />
            <mxPoint x="1091.5" y="710" as="sourcePoint" />
            <Array as="points">
              <mxPoint x="1170" y="710" />
              <mxPoint x="1170" y="415" />
            </Array>
          </mxGeometry>
        </mxCell>
        <mxCell id="V2kGCIOV-SWiBUG3oY8C-24" value="&lt;b&gt;Kafka - Messages from all chats&lt;/b&gt;" style="rounded=1;whiteSpace=wrap;html=1;strokeWidth=2;verticalAlign=top;" parent="1" vertex="1">
          <mxGeometry x="770" y="615" width="321.5" height="170" as="geometry" />
        </mxCell>
        <mxCell id="V2kGCIOV-SWiBUG3oY8C-25" value="&lt;span style=&quot;color: rgb(0, 0, 0); font-family: Helvetica; font-size: 12px; font-style: normal; font-variant-ligatures: normal; font-variant-caps: normal; font-weight: 400; letter-spacing: normal; orphans: 2; text-align: center; text-indent: 0px; text-transform: none; widows: 2; word-spacing: 0px; -webkit-text-stroke-width: 0px; white-space: normal; background-color: rgb(251, 251, 251); text-decoration-thickness: initial; text-decoration-style: initial; text-decoration-color: initial; display: inline !important; float: none;&quot;&gt;Partition 1&lt;/span&gt;" style="rounded=0;whiteSpace=wrap;html=1;strokeWidth=2;fillColor=#dae8fc;strokeColor=#6c8ebf;" parent="1" vertex="1">
          <mxGeometry x="790.5" y="645" width="276" height="30" as="geometry" />
        </mxCell>
        <mxCell id="V2kGCIOV-SWiBUG3oY8C-26" value="&lt;span style=&quot;color: rgb(0, 0, 0); font-family: Helvetica; font-size: 12px; font-style: normal; font-variant-ligatures: normal; font-variant-caps: normal; font-weight: 400; letter-spacing: normal; orphans: 2; text-align: center; text-indent: 0px; text-transform: none; widows: 2; word-spacing: 0px; -webkit-text-stroke-width: 0px; white-space: normal; background-color: rgb(251, 251, 251); text-decoration-thickness: initial; text-decoration-style: initial; text-decoration-color: initial; display: inline !important; float: none;&quot;&gt;Partition 2&lt;/span&gt;" style="rounded=0;whiteSpace=wrap;html=1;strokeWidth=2;fillColor=#e1d5e7;strokeColor=#9673a6;" parent="1" vertex="1">
          <mxGeometry x="790.5" y="685" width="276" height="30" as="geometry" />
        </mxCell>
        <mxCell id="V2kGCIOV-SWiBUG3oY8C-27" value="Partition 3" style="rounded=0;whiteSpace=wrap;html=1;strokeWidth=2;fillColor=#fff2cc;strokeColor=#d6b656;" parent="1" vertex="1">
          <mxGeometry x="790.5" y="725" width="276" height="30" as="geometry" />
        </mxCell>
        <mxCell id="V2kGCIOV-SWiBUG3oY8C-40" value="&lt;b&gt;room_id - partition key&lt;/b&gt;" style="text;strokeColor=none;align=center;fillColor=none;html=1;verticalAlign=middle;whiteSpace=wrap;rounded=0;" parent="1" vertex="1">
          <mxGeometry x="844" y="755" width="169" height="30" as="geometry" />
        </mxCell>
        <mxCell id="V2kGCIOV-SWiBUG3oY8C-45" value="" style="rounded=1;whiteSpace=wrap;html=1;" parent="1" vertex="1">
          <mxGeometry x="320" y="350" width="220" height="140" as="geometry" />
        </mxCell>
        <mxCell id="V2kGCIOV-SWiBUG3oY8C-47" value="Postgres - replica" style="shape=cylinder3;whiteSpace=wrap;html=1;boundedLbl=1;backgroundOutline=1;size=15;" parent="1" vertex="1">
          <mxGeometry x="440" y="370" width="80" height="100" as="geometry" />
        </mxCell>
        <mxCell id="V2kGCIOV-SWiBUG3oY8C-48" value="Postgres - master" style="shape=cylinder3;whiteSpace=wrap;html=1;boundedLbl=1;backgroundOutline=1;size=15;" parent="1" vertex="1">
          <mxGeometry x="336.5" y="370" width="83.5" height="100" as="geometry" />
        </mxCell>
        <mxCell id="V2kGCIOV-SWiBUG3oY8C-51" value="message" style="rounded=0;whiteSpace=wrap;html=1;rotation=0;" parent="1" vertex="1">
          <mxGeometry x="908.5" y="520" width="61.5" height="30" as="geometry" />
        </mxCell>
        <mxCell id="V2kGCIOV-SWiBUG3oY8C-61" value="ws-write /rooms/room_id" style="text;strokeColor=none;align=center;fillColor=none;html=1;verticalAlign=middle;whiteSpace=wrap;rounded=0;" parent="1" vertex="1">
          <mxGeometry x="908.5" y="470" width="80" height="30" as="geometry" />
        </mxCell>
        <mxCell id="V2kGCIOV-SWiBUG3oY8C-65" value="&amp;nbsp; &amp;nbsp; POST /register&lt;div&gt;POST /login&lt;div&gt;&amp;nbsp; &amp;nbsp; POST /refresh&lt;/div&gt;&lt;/div&gt;" style="text;strokeColor=none;align=center;fillColor=none;html=1;verticalAlign=middle;whiteSpace=wrap;rounded=0;" parent="1" vertex="1">
          <mxGeometry x="720" y="380" width="101.5" height="30" as="geometry" />
        </mxCell>
        <mxCell id="V2kGCIOV-SWiBUG3oY8C-78" value="&lt;span style=&quot;color: rgb(0, 0, 0); font-family: Helvetica; font-size: 12px; font-style: normal; font-variant-ligatures: normal; font-variant-caps: normal; font-weight: 400; letter-spacing: normal; orphans: 2; text-align: center; text-indent: 0px; text-transform: none; widows: 2; word-spacing: 0px; -webkit-text-stroke-width: 0px; white-space: normal; background-color: rgb(251, 251, 251); text-decoration-thickness: initial; text-decoration-style: initial; text-decoration-color: initial; display: inline !important; float: none;&quot;&gt;ws-read&amp;nbsp;&lt;/span&gt;&lt;span style=&quot;text-align: center;&quot;&gt;/rooms/room_id&lt;/span&gt;" style="text;whiteSpace=wrap;html=1;" parent="1" vertex="1">
          <mxGeometry x="980" y="420" width="140" height="40" as="geometry" />
        </mxCell>
        <mxCell id="V2kGCIOV-SWiBUG3oY8C-79" value="&lt;span style=&quot;color: rgb(0, 0, 0); font-family: Helvetica; font-size: 12px; font-style: normal; font-variant-ligatures: normal; font-variant-caps: normal; font-weight: 400; letter-spacing: normal; orphans: 2; text-align: center; text-indent: 0px; text-transform: none; widows: 2; word-spacing: 0px; -webkit-text-stroke-width: 0px; white-space: normal; background-color: rgb(251, 251, 251); text-decoration-thickness: initial; text-decoration-style: initial; text-decoration-color: initial; display: inline !important; float: none;&quot;&gt;&amp;nbsp; ws-read&amp;nbsp; &amp;nbsp;&lt;/span&gt;&lt;span style=&quot;text-align: center;&quot;&gt;/rooms/room_id&lt;/span&gt;" style="text;whiteSpace=wrap;html=1;" parent="1" vertex="1">
          <mxGeometry x="750" y="500" width="80" height="60" as="geometry" />
        </mxCell>
        <mxCell id="V2kGCIOV-SWiBUG3oY8C-83" value="Читает при создании ws соединения историю сообщений" style="text;strokeColor=none;align=center;fillColor=none;html=1;verticalAlign=middle;whiteSpace=wrap;rounded=0;" parent="1" vertex="1">
          <mxGeometry x="579.75" y="460" width="133.5" height="30" as="geometry" />
        </mxCell>
        <mxCell id="V2kGCIOV-SWiBUG3oY8C-84" value="Читаем сообщения в realtime" style="text;strokeColor=none;align=center;fillColor=none;html=1;verticalAlign=middle;whiteSpace=wrap;rounded=0;" parent="1" vertex="1">
          <mxGeometry x="970" y="380" width="133.5" height="30" as="geometry" />
        </mxCell>
        <mxCell id="V2kGCIOV-SWiBUG3oY8C-86" value="&lt;b style=&quot;forced-color-adjust: none; color: rgb(0, 0, 0); font-family: Helvetica; font-size: 12px; font-style: normal; font-variant-ligatures: normal; font-variant-caps: normal; letter-spacing: normal; orphans: 2; text-align: center; text-indent: 0px; text-transform: none; widows: 2; word-spacing: 0px; -webkit-text-stroke-width: 0px; white-space: normal; background-color: rgb(251, 251, 251); text-decoration-thickness: initial; text-decoration-style: initial; text-decoration-color: initial;&quot;&gt;consumer group #1&lt;/b&gt;" style="text;whiteSpace=wrap;html=1;" parent="1" vertex="1">
          <mxGeometry x="586" y="745" width="121" height="40" as="geometry" />
        </mxCell>
        <mxCell id="V2kGCIOV-SWiBUG3oY8C-87" value="&lt;div style=&quot;text-align: center;&quot;&gt;&lt;b&gt;каждый инстанс&amp;nbsp;&lt;/b&gt;&lt;b style=&quot;background-color: initial;&quot;&gt;app-webscoket&lt;/b&gt;&lt;b style=&quot;background-color: initial;&quot;&gt;&amp;nbsp;- разные&amp;nbsp;&lt;/b&gt;&lt;b style=&quot;background-color: initial;&quot;&gt;consumer group&lt;/b&gt;&lt;/div&gt;" style="text;whiteSpace=wrap;html=1;" parent="1" vertex="1">
          <mxGeometry x="935.12" y="330" width="203.25" height="40" as="geometry" />
        </mxCell>
        <mxCell id="V2kGCIOV-SWiBUG3oY8C-91" value="Количество инстансов должно быть кратно количеству&amp;nbsp;&lt;b&gt;partitions&lt;/b&gt;" style="text;strokeColor=none;align=center;fillColor=none;html=1;verticalAlign=middle;whiteSpace=wrap;rounded=0;" parent="1" vertex="1">
          <mxGeometry x="593" y="775" width="103.5" height="70" as="geometry" />
        </mxCell>
        <mxCell id="V2kGCIOV-SWiBUG3oY8C-92" value="" style="rounded=1;whiteSpace=wrap;html=1;" parent="1" vertex="1">
          <mxGeometry x="576.5" y="500" width="120" height="60" as="geometry" />
        </mxCell>
        <mxCell id="V2kGCIOV-SWiBUG3oY8C-93" value="Redis Cluster&lt;div&gt;for cache&lt;/div&gt;" style="rounded=1;whiteSpace=wrap;html=1;" parent="1" vertex="1">
          <mxGeometry x="586.5" y="510" width="120" height="60" as="geometry" />
        </mxCell>
        <mxCell id="V2kGCIOV-SWiBUG3oY8C-95" value="&lt;h1&gt;&lt;font style=&quot;font-size: 40px;&quot;&gt;V2 Rooms&lt;/font&gt;&lt;/h1&gt;" style="text;strokeColor=none;align=center;fillColor=none;html=1;verticalAlign=middle;whiteSpace=wrap;rounded=0;" parent="1" vertex="1">
          <mxGeometry x="533" y="245" width="217" height="30" as="geometry" />
        </mxCell>
        <mxCell id="hsJ_QFFRe8ZlSlVWmozC-1" value="Если в Redis нет сообщений то идет в Postgres" style="text;strokeColor=none;align=center;fillColor=none;html=1;verticalAlign=middle;whiteSpace=wrap;rounded=0;" parent="1" vertex="1">
          <mxGeometry x="730" y="430" width="100" height="30" as="geometry" />
        </mxCell>
        <mxCell id="FPiF2-erJeEUC9mxgl_W-1" value="&lt;b&gt;app-webscoket&lt;/b&gt;" style="rounded=1;whiteSpace=wrap;html=1;" vertex="1" parent="1">
          <mxGeometry x="850" y="400" width="120" height="60" as="geometry" />
        </mxCell>
        <mxCell id="FPiF2-erJeEUC9mxgl_W-2" value="&lt;b&gt;app-webscoket&lt;/b&gt;" style="rounded=1;whiteSpace=wrap;html=1;" vertex="1" parent="1">
          <mxGeometry x="860" y="410" width="120" height="60" as="geometry" />
        </mxCell>
        <mxCell id="FPiF2-erJeEUC9mxgl_W-5" value="nodejs - frontend" style="rounded=1;whiteSpace=wrap;html=1;" vertex="1" parent="1">
          <mxGeometry x="1060" y="213.75" width="140" height="80" as="geometry" />
        </mxCell>
        <mxCell id="FPiF2-erJeEUC9mxgl_W-13" style="edgeStyle=orthogonalEdgeStyle;rounded=0;orthogonalLoop=1;jettySize=auto;html=1;entryX=0.5;entryY=0;entryDx=0;entryDy=0;" edge="1" parent="1" source="FPiF2-erJeEUC9mxgl_W-8" target="gXMzRmbCBZJjR22APG0Y-1">
          <mxGeometry relative="1" as="geometry" />
        </mxCell>
        <mxCell id="FPiF2-erJeEUC9mxgl_W-8" value="nginx proxy" style="rhombus;whiteSpace=wrap;html=1;" vertex="1" parent="1">
          <mxGeometry x="825" y="190" width="150" height="127.5" as="geometry" />
        </mxCell>
        <mxCell id="FPiF2-erJeEUC9mxgl_W-11" style="edgeStyle=orthogonalEdgeStyle;rounded=0;orthogonalLoop=1;jettySize=auto;html=1;entryX=0;entryY=0.5;entryDx=0;entryDy=0;" edge="1" parent="1" source="FPiF2-erJeEUC9mxgl_W-8" target="FPiF2-erJeEUC9mxgl_W-5">
          <mxGeometry relative="1" as="geometry">
            <mxPoint x="1049.04" y="259" as="targetPoint" />
          </mxGeometry>
        </mxCell>
        <mxCell id="FPiF2-erJeEUC9mxgl_W-12" value="nodejs - frontend" style="rounded=1;whiteSpace=wrap;html=1;" vertex="1" parent="1">
          <mxGeometry x="1070" y="223.75" width="140" height="80" as="geometry" />
        </mxCell>
      </root>
    </mxGraphModel>
  </diagram>
</mxfile>
